<?xml version="1.0" encoding="UTF-8"?>
<svg version="1.1" xmlns="http://www.w3.org/2000/svg" width="215" height="215">
<path d="M0 0 C70.95 0 141.9 0 215 0 C215 70.95 215 141.9 215 215 C144.05 215 73.1 215 0 215 C0 144.05 0 73.1 0 0 Z " fill="#B3ADA3" transform="translate(0,0)"/>
<path d="M0 0 C18.81 0 37.62 0 57 0 C58.32 2.31 59.64 4.62 61 7 C56.07872966 7.16682272 52.49656104 7.24828052 48 5 C48.52537724 10.0302076 49.10594786 15.01885239 50 20 C46.7 20.66 43.4 21.32 40 22 C40.78375 22.78375 41.5675 23.5675 42.375 24.375 C43.91666667 25.91666667 45.45833333 27.45833333 47 29 C47 30.65 47 32.3 47 34 C43.7 32.68 40.4 31.36 37 30 C37 30.66 37 31.32 37 32 C37.639375 32.28875 38.27875 32.5775 38.9375 32.875 C41 34 41 34 42 36 C40.02 36.495 40.02 36.495 38 37 C38.99 37.495 38.99 37.495 40 38 C40.12572773 44.53784219 40.12572773 44.53784219 39.50439453 46.82177734 C38.82020258 49.77645334 38.87010466 52.56980414 38.8671875 55.6015625 C38.86589844 56.89707031 38.86460938 58.19257812 38.86328125 59.52734375 C38.86537598 60.2013623 38.8674707 60.87538086 38.86962891 61.56982422 C38.87492789 63.59740882 38.86970232 65.62476648 38.86328125 67.65234375 C38.87038157 74.83076888 39.07301942 81.877664 40 89 C39.030625 89.28875 38.06125 89.5775 37.0625 89.875 C33.89335797 90.64214682 33.89335797 90.64214682 33 93 C32.55315148 99.49371795 33.83373619 104.55838815 35.875 110.6875 C38.09764408 117.64377873 39.76172083 124.1854377 40.48046875 131.46875 C41.08799963 134.42875006 41.79710839 135.92552808 44 138 C46.29845495 138.2677441 46.29845495 138.2677441 48.6875 137.75 C49.89986328 137.55664062 49.89986328 137.55664062 51.13671875 137.359375 C51.75160156 137.24078125 52.36648437 137.1221875 53 137 C53.49628906 138.05058594 53.99257813 139.10117188 54.50390625 140.18359375 C57.95691663 147.35891342 61.17933554 154.01327041 66.65234375 159.91015625 C68 162 68 162 68.36328125 165.41015625 C69.17951727 170.01212496 70.76061416 171.33320554 74.25 174.375 C74.78431641 174.84123779 75.31863281 175.30747559 75.86914062 175.7878418 C85.06995315 183.6564645 94.9917783 189.94216841 106 195 C104.6581656 199.02550319 102.5772427 199.88285636 99 202 C98.34 202 97.68 202 97 202 C97.26296875 202.51949219 97.5259375 203.03898438 97.796875 203.57421875 C98.11140625 204.27160156 98.4259375 204.96898437 98.75 205.6875 C99.07484375 206.37199219 99.3996875 207.05648437 99.734375 207.76171875 C99.82203125 208.50035156 99.9096875 209.23898438 100 210 C98.68 211.65 97.36 213.3 96 215 C64.32 215 32.64 215 0 215 C0 144.05 0 73.1 0 0 Z " fill="#B3ADA3" transform="translate(0,0)"/>
<path d="M0 0 C0.99 1.485 0.99 1.485 2 3 C2.46277344 3.68835937 2.92554688 4.37671875 3.40234375 5.0859375 C3.90894531 5.84132813 4.41554688 6.59671875 4.9375 7.375 C5.44152344 8.12523437 5.94554687 8.87546875 6.46484375 9.6484375 C6.97144531 10.42445312 7.47804688 11.20046875 8 12 C8.52062012 12.72807861 9.04124023 13.45615723 9.57763672 14.20629883 C11.3571088 17.70140679 11.34288761 20.14047093 11.29296875 24.05078125 C11.28872391 24.70958786 11.28447906 25.36839447 11.28010559 26.04716492 C11.26341196 28.13603885 11.22578058 30.22392139 11.1875 32.3125 C11.17244097 33.73501203 11.15875469 35.1575393 11.14648438 36.58007812 C11.11354003 40.05370351 11.06182408 43.52675487 11 47 C8.44919549 46.52762879 6.90316061 45.934075 4.73168945 44.45581055 C1.21911151 42.58383787 -1.83133597 42.62081247 -5.70703125 42.70703125 C-6.43242599 42.71127609 -7.15782074 42.71552094 -7.90519714 42.71989441 C-10.20801891 42.73660457 -12.50994553 42.7742404 -14.8125 42.8125 C-16.3795446 42.82755684 -17.946603 42.8412435 -19.51367188 42.85351562 C-23.34278957 42.88648269 -27.17124334 42.93821008 -31 43 C-31 43.66 -31 44.32 -31 45 C-30.34 45.66 -29.68 46.32 -29 47 C-28.39286197 48.85483454 -27.85868948 50.73421385 -27.375 52.625 C-26.98441406 54.12933594 -26.98441406 54.12933594 -26.5859375 55.6640625 C-26.39257812 56.43492188 -26.19921875 57.20578125 -26 58 C-25.566875 57.505 -25.13375 57.01 -24.6875 56.5 C-23 55 -23 55 -20 55 C-19.690625 56.134375 -19.38125 57.26875 -19.0625 58.4375 C-18.37075469 61.78775099 -18.37075469 61.78775099 -17 63 C-12.31877614 63.4384576 -12.31877614 63.4384576 -8.0625 61.8125 C-6.67148017 59.43958382 -6.78082683 57.70313576 -7 55 C-6.195625 55.33 -5.39125 55.66 -4.5625 56 C-2.30318875 57.06059041 -2.30318875 57.06059041 -1 57 C2.1326719 55.54554519 5.04778008 53.78686995 8 52 C8.66 51.67 9.32 51.34 10 51 C9.54717492 73.64125402 5.09582907 103.51960714 -9 122 C-9.79857422 123.04800781 -9.79857422 123.04800781 -10.61328125 124.1171875 C-14.23651689 128.53170448 -18.2854968 131.99222857 -22.88671875 135.359375 C-25.07377299 136.98041847 -25.07377299 136.98041847 -27.046875 139.09375 C-32.18666326 144.11018334 -38.59310273 144.33027596 -45.38671875 144.30078125 C-51.24460421 143.62655527 -54.01598619 141.22159261 -58 137 C-59.44652503 135.68157324 -60.89328751 134.36333695 -62.35107422 133.05737305 C-79.5434683 117.60294767 -85.65998927 100.03559075 -89.6875 77.4375 C-90.00557617 75.74463867 -90.00557617 75.74463867 -90.33007812 74.01757812 C-91.66534312 66.69257554 -92.52556867 59.42994862 -93 52 C-90.03 53.65 -87.06 55.3 -84 57 C-84 57.66 -84 58.32 -84 59 C-83.21625 58.34 -82.4325 57.68 -81.625 57 C-79 55 -79 55 -77 55 C-76.5359375 56.7015625 -76.5359375 56.7015625 -76.0625 58.4375 C-75.37075469 61.78775099 -75.37075469 61.78775099 -74 63 C-69.31877614 63.4384576 -69.31877614 63.4384576 -65.0625 61.8125 C-63.67148017 59.43958382 -63.78082683 57.70313576 -64 55 C-59.25 55.75 -59.25 55.75 -57 58 C-57 57.34 -57 56.68 -57 56 C-56.525625 55.608125 -56.05125 55.21625 -55.5625 54.8125 C-53.25244425 52.13283533 -53.36968751 49.45041672 -53 46 C-52.67 45.01 -52.34 44.02 -52 43 C-56.5714698 42.90056202 -61.14229975 42.82826651 -65.71459961 42.78027344 C-67.26744565 42.7602513 -68.82021719 42.73302483 -70.37280273 42.69824219 C-72.61460832 42.6493039 -74.85541093 42.62693832 -77.09765625 42.609375 C-77.78336197 42.58872986 -78.46906769 42.56808472 -79.17555237 42.54681396 C-84.63345634 42.54431613 -87.52448443 44.17615033 -92 47 C-92.66 47 -93.32 47 -94 47 C-94.14942337 42.58932876 -94.25771011 38.18003519 -94.32958984 33.76757812 C-94.35958169 32.26992094 -94.40039126 30.77243671 -94.45263672 29.27539062 C-94.9627016 14.27348241 -94.9627016 14.27348241 -89.68994141 8.46289062 C-89.13226074 7.98013672 -88.57458008 7.49738281 -88 7 C-87.37786621 6.4421582 -86.75573242 5.88431641 -86.11474609 5.30957031 C-83.48021807 3.67812165 -82.00932153 3.71079451 -78.9375 3.890625 C-77.97585937 3.94089844 -77.01421875 3.99117187 -76.0234375 4.04296875 C-75.02570313 4.11128906 -74.02796875 4.17960937 -73 4.25 C-72.00226563 4.30285156 -71.00453125 4.35570312 -69.9765625 4.41015625 C-65.84290902 4.64842314 -62.01008158 4.95937662 -58 6 C-47.87042471 6.91983811 -37.66588099 7.1540031 -27.5 7.3125 C-26.0154834 7.35709351 -26.0154834 7.35709351 -24.50097656 7.40258789 C-17.52824337 7.45821517 -12.25830332 6.03049437 -6 3 C-5.35788574 2.69392822 -4.71577148 2.38785645 -4.05419922 2.07250977 C-2.69118739 1.40487574 -1.34307629 0.70688226 0 0 Z " fill="#EFC0A7" transform="translate(150,38)"/>
<path d="M0 0 C11.56162281 -0.16259273 23.12297114 -0.28677308 34.68550682 -0.3626852 C40.05523601 -0.39913005 45.42417979 -0.44851995 50.79345703 -0.52807617 C55.98066488 -0.60444878 61.16712002 -0.64605602 66.35484695 -0.6641407 C68.32837388 -0.67701891 70.3018622 -0.70216756 72.27506638 -0.7401104 C91.00719973 -1.08580206 91.00719973 -1.08580206 98.0140686 5.23033142 C100.29982041 7.26717074 102.60242015 8.41264381 105.375 9.6875 C108.88896693 11.35608178 111.49806589 12.9294445 114 16 C113.34 16 112.68 16 112 16 C112.33 16.66 112.66 17.32 113 18 C115.52733235 18.65555119 115.52733235 18.65555119 118 19 C118 19.66 118 20.32 118 21 C117.34 21 116.68 21 116 21 C116.26554688 21.49628906 116.53109375 21.99257813 116.8046875 22.50390625 C117.33449219 23.52291016 117.33449219 23.52291016 117.875 24.5625 C118.39707031 25.55443359 118.39707031 25.55443359 118.9296875 26.56640625 C121.98460798 33.51244807 122.28298099 39.54965337 122.1875 47.0625 C122.1865332 48.51366211 122.1865332 48.51366211 122.18554688 49.99414062 C122.15593113 54.80176337 121.80274585 59.25762454 121 64 C120.87466524 66.63092814 120.81904423 69.26007802 120.76049805 71.89331055 C120.33474773 89.64809529 118.05329807 107.22463674 112 124 C111.67 124 111.34 124 111 124 C111.01571045 122.71258911 111.01571045 122.71258911 111.03173828 121.39916992 C111.19075061 106.27588949 111.25972009 91.16349741 110.3125 76.0625 C110.25916504 74.98830811 110.20583008 73.91411621 110.15087891 72.80737305 C109.47398924 63.53134163 106.48921174 55.942026 99.875 49.25 C96.78896542 45.97181609 94.70506217 43.15608905 93 39 C92.34773438 39.33773437 91.69546875 39.67546875 91.0234375 40.0234375 C90.14945312 40.46945313 89.27546875 40.91546875 88.375 41.375 C87.51648438 41.81585938 86.65796875 42.25671875 85.7734375 42.7109375 C78.89041592 45.91008838 73.24958743 46.28257351 65.75 46.1875 C64.16493652 46.17674438 64.16493652 46.17674438 62.54785156 46.16577148 C38.58781586 45.92168721 38.58781586 45.92168721 33.09643555 44.51098633 C28.83562254 43.47245347 24.42674914 43.39688054 20.0625 43.125 C19.07314453 43.03992187 18.08378906 42.95484375 17.06445312 42.8671875 C11.10045246 42.44788404 11.10045246 42.44788404 6 45.2734375 C5.34 46.17320313 4.68 47.07296875 4 48 C3.17822266 48.88171875 3.17822266 48.88171875 2.33984375 49.78125 C-7.14144933 61.40177633 -6.54529427 75.20927576 -6.3125 89.375 C-6.30097933 91.18358342 -6.2912029 92.99217883 -6.28320312 94.80078125 C-6.26978944 96.54167939 -6.25486935 98.28256672 -6.23828125 100.0234375 C-6.23089432 100.82147797 -6.22350739 101.61951843 -6.21589661 102.44174194 C-6.13801202 107.04337979 -5.70248554 111.44257269 -5 116 C-4.93484943 118.64511313 -4.91408574 121.29168825 -4.9375 123.9375 C-4.94201172 124.62134766 -4.94652344 125.30519531 -4.95117188 126.00976562 C-4.9628044 127.67321604 -4.98073306 129.3366205 -5 131 C-20.87340382 113.34201232 -20.07647702 74.67024534 -19.24560547 52.26904297 C-18.88215416 47.43145541 -18.04270597 42.73348708 -17 38 C-17.99 37.67 -18.98 37.34 -20 37 C-18.68 36.34 -17.36 35.68 -16 35 C-16.66 34.54625 -17.32 34.0925 -18 33.625 C-18.66 33.08875 -19.32 32.5525 -20 32 C-20 31.34 -20 30.68 -20 30 C-16.65626525 30.55728913 -13.96687001 31.35173889 -11 33 C-11.41667064 28.13884258 -13.50156131 26.23605579 -17 23 C-17.33 22.34 -17.66 21.68 -18 21 C-14.32589215 19.82428549 -10.83070817 19.92633254 -7 20 C-7.33 19.195625 -7.66 18.39125 -8 17.5625 C-9.20717135 13.26195205 -9.17721353 9.43033819 -9 5 C-8.319375 5.165 -7.63875 5.33 -6.9375 5.5 C-3.5835178 6.07089059 -0.39610195 6.06659023 3 6 C2.01 4.02 1.02 2.04 0 0 Z " fill="#3E3D3D" transform="translate(57,0)"/>
<path d="M0 0 C7.07922761 7.07922761 7.57926599 13.42234055 8.1875 23.0625 C8.26790527 24.22177002 8.34831055 25.38104004 8.43115234 26.57543945 C9.29301103 40.37528544 9.18860526 54.18103782 9 68 C11.77764495 57.39701014 14.10498846 46.79582332 16 36 C20.7734375 35.8125 20.7734375 35.8125 22.8125 37.5 C26.00067162 44.21194025 23.27082561 51.21274675 21.0625 57.8125 C18.99623695 64.25201883 17.55107087 70.06803572 17.2734375 76.859375 C16.78054464 80.71802194 14.7199273 83.2800727 12 86 C9.6618385 85.70241581 7.32817964 85.36760731 5 85 C4.34 85 3.68 85 3 85 C2.50371094 86.0621875 2.00742188 87.124375 1.49609375 88.21875 C-2.20504504 95.97382243 -5.69368108 102.98614804 -12 109 C-13.42431814 110.20009388 -13.42431814 110.20009388 -13.17578125 113.69140625 C-13.6762328 117.97050534 -15.11882495 119.78252955 -18.35546875 122.51391602 C-18.96003906 122.98369873 -19.56460938 123.45348145 -20.1875 123.9375 C-20.80882812 124.444021 -21.43015625 124.95054199 -22.0703125 125.47241211 C-42.75776393 142 -42.75776393 142 -51 142 C-51 142.66 -51 143.32 -51 144 C-50.236875 144.28875 -49.47375 144.5775 -48.6875 144.875 C-46 146 -46 146 -43 148 C-43.48578543 151.12290635 -43.9986012 153.99580359 -45 157 C-44.01 159.475 -44.01 159.475 -43 162 C-49.93 162 -56.86 162 -64 162 C-63.01 160.02 -62.02 158.04 -61 156 C-61.66 155.01 -62.32 154.02 -63 153 C-63 151.68 -63 150.36 -63 149 C-61.28515625 147.5859375 -61.28515625 147.5859375 -59.0625 146.375 C-55.93256594 144.77807245 -55.93256594 144.77807245 -54 142 C-55.216875 141.690625 -56.43375 141.38125 -57.6875 141.0625 C-70.5206781 136.73130239 -82.54381375 125.45618625 -92 116 C-92.04125 115.01 -92.0825 114.02 -92.125 113 C-92.55474745 109.19478167 -94.20691421 107.2946453 -96.6875 104.4375 C-101.75005132 98.53575099 -104.25786595 92.20848875 -107 85 C-107.60328125 85.13019531 -108.2065625 85.26039063 -108.828125 85.39453125 C-109.62734375 85.53246094 -110.4265625 85.67039062 -111.25 85.8125 C-112.03890625 85.96332031 -112.8278125 86.11414063 -113.640625 86.26953125 C-116 86 -116 86 -118.20703125 84 C-120.3299125 80.44798955 -120.92425463 77.21580992 -121.4375 73.1875 C-122.55213419 65.68229645 -124.49022316 58.83155029 -127.01171875 51.68359375 C-128.30890871 46.848613 -129.03036205 42.16918327 -126.8125 37.5 C-124.4423674 35.53851095 -122.99551018 35.88233675 -120 36 C-119.87995605 36.53665283 -119.75991211 37.07330566 -119.63623047 37.6262207 C-116.69809381 50.64329933 -113.21110154 63.3377531 -109 76 C-108.97265143 73.97924434 -108.9534483 71.95837779 -108.9375 69.9375 C-108.92589844 68.81214844 -108.91429688 67.68679687 -108.90234375 66.52734375 C-108.92439612 63.04844135 -108.92439612 63.04844135 -109.49121094 59.84057617 C-110.06090849 55.54023443 -110.19818402 51.35530547 -110.23828125 47.0234375 C-110.25038887 45.75277939 -110.25038887 45.75277939 -110.26274109 44.45645142 C-110.27650793 42.66971843 -110.28726281 40.88295995 -110.29516602 39.09619141 C-110.30665409 37.29272598 -110.32705537 35.48929369 -110.35668945 33.68603516 C-110.53310504 22.92172771 -110.56074058 13.00020416 -106 3 C-105.34 2.34 -104.68 1.68 -104 1 C-104 11.23 -104 21.46 -104 32 C-101.03 30.35 -98.06 28.7 -95 27 C-91.93621208 26.58931641 -89.48881667 26.40320171 -86.46484375 26.51171875 C-85.70071671 26.51879349 -84.93658966 26.52586823 -84.14930725 26.53315735 C-81.74431105 26.56081444 -79.34177422 26.62348587 -76.9375 26.6875 C-75.29235169 26.71262048 -73.64716634 26.73542702 -72.00195312 26.75585938 C-68.00037607 26.81054506 -64.00060269 26.8966047 -60 27 C-60.31912354 27.61206299 -60.63824707 28.22412598 -60.96704102 28.85473633 C-62.40080408 31.83239552 -62.7936966 34.83445265 -63.33984375 38.07421875 C-63.66662109 39.02748047 -63.66662109 39.02748047 -64 40 C-64.99 40.33 -65.98 40.66 -67 41 C-66.505 42.98 -66.505 42.98 -66 45 C-66.598125 44.34 -67.19625 43.68 -67.8125 43 C-69.87501834 40.6626154 -69.87501834 40.6626154 -73 41 C-73.1546875 42.423125 -73.1546875 42.423125 -73.3125 43.875 C-74 47 -74 47 -77 49 C-83.06706793 49.54170249 -83.06706793 49.54170249 -85.9375 47.875 C-87.44484863 45.214973 -87.19986253 42.99793795 -87 40 C-89.31 41.65 -91.62 43.3 -94 45 C-94.99 44.505 -94.99 44.505 -96 44 C-96 43.34 -96 42.68 -96 42 C-97.96147874 40.61061923 -99.96166576 39.2739589 -102 38 C-99.07259521 67.3896034 -94.88708536 97.38270823 -72 118 C-69.56809318 119.95533718 -67.11858198 121.84325739 -64.58203125 123.66015625 C-64.05996094 124.10230469 -63.53789063 124.54445313 -63 125 C-63 125.66 -63 126.32 -63 127 C-54.61835116 128.85421368 -47.48398683 128.88858627 -39.77734375 124.875 C-38 124 -38 124 -36 124 C-35.76539062 123.41347656 -35.53078125 122.82695312 -35.2890625 122.22265625 C-33.70355198 119.48885175 -31.93844484 118.27476774 -29.375 116.4375 C-9.95972126 101.2806951 -5.47300004 73.06525026 -2 50 C-1.47612253 45.67801083 -1.16143828 41.3507617 -1 37 C-1.42925781 37.47050781 -1.85851562 37.94101563 -2.30078125 38.42578125 C-4.60473126 40.56024528 -7.01829383 41.13861822 -10 42 C-9.67 42.66 -9.34 43.32 -9 44 C-9.598125 43.690625 -10.19625 43.38125 -10.8125 43.0625 C-13.08956772 41.89790296 -13.08956772 41.89790296 -16 41 C-16.103125 41.94875 -16.20625 42.8975 -16.3125 43.875 C-17 47 -17 47 -20 49 C-26.06706793 49.54170249 -26.06706793 49.54170249 -28.9375 47.875 C-30.44484863 45.214973 -30.19986253 42.99793795 -30 40 C-30.78375 40.474375 -31.5675 40.94875 -32.375 41.4375 C-33.88948678 42.33898023 -35.4235897 43.21179485 -37 44 C-37.18175781 43.16855469 -37.36351563 42.33710937 -37.55078125 41.48046875 C-37.80214844 40.39378906 -38.05351563 39.30710938 -38.3125 38.1875 C-38.55613281 37.10855469 -38.79976563 36.02960938 -39.05078125 34.91796875 C-39.98201592 32.0552844 -40.68760535 30.84602934 -43 29 C-42.505 27.515 -42.505 27.515 -42 26 C-41.67 26.33 -41.34 26.66 -41 27 C-38.65668031 27.02669798 -36.3408806 26.99275889 -34 26.921875 C-32.54038755 26.89457665 -31.0807503 26.86857871 -29.62109375 26.84375 C-27.32109701 26.80080502 -25.02239661 26.75071085 -22.72314453 26.67773438 C-20.50273678 26.61028871 -18.28370016 26.57612429 -16.0625 26.546875 C-15.05413086 26.50345978 -15.05413086 26.50345978 -14.02539062 26.45916748 C-7.34492488 26.42249539 -5.68201054 28.28777192 1 32 C0.67 21.44 0.34 10.88 0 0 Z " fill="#C86D47" transform="translate(160,53)"/>
<path d="M0 0 C13.06156343 2.28059044 26.24045784 5.76877249 38 12 C39.18142578 12.57234375 39.18142578 12.57234375 40.38671875 13.15625 C49.57930782 18.27538279 53.80543794 28.41631383 57 38 C29.94 38 2.88 38 -25 38 C-24.34 36.68 -23.68 35.36 -23 34 C-22.01 34 -21.02 34 -20 34 C-11.86742916 26.52144709 -0.36154125 14.47185246 0.1875 3.125 C0.125625 2.09375 0.06375 1.0625 0 0 Z " fill="#515151" transform="translate(152,177)"/>
<path d="M0 0 C0.20625 1.27875 0.4125 2.5575 0.625 3.875 C2.9003253 13.74499218 9.15774026 20.63095986 16.03662109 27.70996094 C20 31.80949121 20 31.80949121 20 34 C21.65 33.67 23.3 33.34 25 33 C25.99 34.98 25.99 34.98 27 37 C0.27 37 -26.46 37 -54 37 C-46.50794979 16.39686192 -46.50794979 16.39686192 -35.4765625 10.59375 C-24.59413028 5.60494961 -12.10452229 0 0 0 Z " fill="#505050" transform="translate(63,178)"/>
<path d="M0 0 C0.33 0 0.66 0 1 0 C1 10.23 1 20.46 1 31 C3.97 29.35 6.94 27.7 10 26 C13.06378792 25.58931641 15.51118333 25.40320171 18.53515625 25.51171875 C19.29928329 25.51879349 20.06341034 25.52586823 20.85069275 25.53315735 C23.25568895 25.56081444 25.65822578 25.62348587 28.0625 25.6875 C29.70764831 25.71262048 31.35283366 25.73542702 32.99804688 25.75585938 C36.99962393 25.81054506 40.99939731 25.8966047 45 26 C44.68087646 26.61206299 44.36175293 27.22412598 44.03295898 27.85473633 C42.59919592 30.83239552 42.2063034 33.83445265 41.66015625 37.07421875 C41.33337891 38.02748047 41.33337891 38.02748047 41 39 C40.01 39.33 39.02 39.66 38 40 C38.495 41.98 38.495 41.98 39 44 C38.401875 43.34 37.80375 42.68 37.1875 42 C35.12498166 39.6626154 35.12498166 39.6626154 32 40 C31.8453125 41.423125 31.8453125 41.423125 31.6875 42.875 C31 46 31 46 28 48 C21.93293207 48.54170249 21.93293207 48.54170249 19.0625 46.875 C17.55515137 44.214973 17.80013747 41.99793795 18 39 C15.69 40.65 13.38 42.3 11 44 C10.34 43.67 9.68 43.34 9 43 C9 42.34 9 41.68 9 41 C7.03852126 39.61061923 5.03833424 38.2739589 3 37 C6.07720784 67.89354712 10.67824992 98.47359071 35.7109375 119.25 C37.78296007 120.8710145 39.86870359 122.45809914 42 124 C41.01 124.495 41.01 124.495 40 125 C37.59416218 123.78947731 35.35124477 122.53127275 33.0625 121.125 C32.39025391 120.71515869 31.71800781 120.30531738 31.02539062 119.88305664 C24.9166672 116.08108832 19.31215323 111.86361049 14 107 C13.01773438 106.10087891 13.01773438 106.10087891 12.015625 105.18359375 C-5.68673578 87.0504233 -5.281619 57.92813412 -5.4375 34.375 C-5.44944397 33.51400696 -5.46138794 32.65301392 -5.47369385 31.76593018 C-5.60883513 20.47827467 -5.16375522 10.32751043 0 0 Z " fill="#E8B195" transform="translate(55,54)"/>
<path d="M0 0 C7.28139932 7.28139932 7.58999982 13.88958133 8.1875 23.8125 C8.26500488 25.01503418 8.34250977 26.21756836 8.42236328 27.45654297 C8.63629868 30.97025552 8.82444206 34.48418037 9 38 C9.07226807 39.35665771 9.07226807 39.35665771 9.14599609 40.74072266 C10.16109831 62.10070054 3.90855424 88.33755203 -10 105 C-17.32843999 112.84334672 -25.88557112 118.49142547 -35 124 C-35 123.01 -35 122.02 -35 121 C-32.875 119.125 -32.875 119.125 -30 117 C-10.04096293 101.11999493 -4.66712448 72.00377698 -1.734375 47.80859375 C-1.37389724 44.2107484 -1.13406496 40.61305071 -1 37 C-1.42925781 37.47050781 -1.85851562 37.94101563 -2.30078125 38.42578125 C-4.60473126 40.56024528 -7.01829383 41.13861822 -10 42 C-9.67 42.66 -9.34 43.32 -9 44 C-9.598125 43.690625 -10.19625 43.38125 -10.8125 43.0625 C-13.08956772 41.89790296 -13.08956772 41.89790296 -16 41 C-16.103125 41.94875 -16.20625 42.8975 -16.3125 43.875 C-17 47 -17 47 -20 49 C-26.06706793 49.54170249 -26.06706793 49.54170249 -28.9375 47.875 C-30.44484863 45.214973 -30.19986253 42.99793795 -30 40 C-30.78375 40.474375 -31.5675 40.94875 -32.375 41.4375 C-33.88948678 42.33898023 -35.4235897 43.21179485 -37 44 C-37.18175781 43.16855469 -37.36351563 42.33710937 -37.55078125 41.48046875 C-37.80214844 40.39378906 -38.05351563 39.30710938 -38.3125 38.1875 C-38.55613281 37.10855469 -38.79976563 36.02960938 -39.05078125 34.91796875 C-39.98201592 32.0552844 -40.68760535 30.84602934 -43 29 C-42.505 27.515 -42.505 27.515 -42 26 C-41.67 26.33 -41.34 26.66 -41 27 C-38.65668031 27.02669798 -36.3408806 26.99275889 -34 26.921875 C-32.54038755 26.89457665 -31.0807503 26.86857871 -29.62109375 26.84375 C-27.32109701 26.80080502 -25.02239661 26.75071085 -22.72314453 26.67773438 C-20.50273678 26.61028871 -18.28370016 26.57612429 -16.0625 26.546875 C-15.05413086 26.50345978 -15.05413086 26.50345978 -14.02539062 26.45916748 C-7.34492488 26.42249539 -5.68201054 28.28777192 1 32 C0.67 21.44 0.34 10.88 0 0 Z " fill="#E8B195" transform="translate(160,53)"/>
<path d="M0 0 C3.49279024 3.02708488 5.02233179 5.46717465 6 10 C6 20.48597271 -1.88763818 28.33066429 -8.6640625 35.50390625 C-10.53944867 37.50787241 -12.25705731 39.5232935 -13.9375 41.6875 C-14.618125 42.450625 -15.29875 43.21375 -16 44 C-16.99 44 -17.98 44 -19 44 C-19.33 44.66 -19.66 45.32 -20 46 C-29.08456125 46.76698922 -29.08456125 46.76698922 -32.3125 44.0625 C-33.32944601 39.53246776 -31.77661769 36.18188471 -30 32 C-31.1446875 31.566875 -31.1446875 31.566875 -32.3125 31.125 C-35 30 -35 30 -38 28 C-38 27.34 -38 26.68 -38 26 C-37.00742188 25.55011719 -36.01484375 25.10023438 -34.9921875 24.63671875 C-24.88482141 19.90734292 -16.45590856 14.25186672 -8 7 C-7.12601563 6.25492188 -6.25203125 5.50984375 -5.3515625 4.7421875 C-3.54926375 3.18019525 -1.76390693 1.60504574 0 0 Z " fill="#FCFBFB" transform="translate(147,169)"/>
<path d="M0 0 C0.74830078 0.51046875 0.74830078 0.51046875 1.51171875 1.03125 C20.078556 14.81949015 20.078556 14.81949015 42 18 C53.39829553 14.53031159 63.24633238 7.64380259 73 1 C73.495 3.97 73.495 3.97 74 7 C46.47453704 30 46.47453704 30 38 30 C38 30.66 38 31.32 38 32 C38.763125 32.28875 39.52625 32.5775 40.3125 32.875 C43 34 43 34 46 36 C45.51421457 39.12290635 45.0013988 41.99580359 44 45 C44.66 46.65 45.32 48.3 46 50 C39.07 50 32.14 50 25 50 C25.99 48.02 26.98 46.04 28 44 C27.34 43.01 26.68 42.02 26 41 C26 39.68 26 38.36 26 37 C27.71484375 35.5859375 27.71484375 35.5859375 29.9375 34.375 C33.06743406 32.77807245 33.06743406 32.77807245 35 30 C33.783125 29.690625 32.56625 29.38125 31.3125 29.0625 C24.38305971 26.73099818 18.7599313 22.37026938 13 18 C12.38882324 17.54463867 11.77764648 17.08927734 11.14794922 16.62011719 C9.3050744 15.23182778 7.49340331 13.81094742 5.6875 12.375 C5.11805664 11.94445312 4.54861328 11.51390625 3.96191406 11.0703125 C2.38671875 9.7734375 2.38671875 9.7734375 0 7 C-0.35546875 3.1640625 -0.35546875 3.1640625 0 0 Z " fill="#E9B296" transform="translate(71,165)"/>
<path d="M0 0 C3.44247003 1.49095641 5.73618687 3.47962556 8.4375 6.0625 C17.62692343 14.45577661 27.71156097 20.8134199 39 26 C37.6581656 30.02550319 35.5772427 30.88285636 32 33 C31.34 33 30.68 33 30 33 C30.39445312 33.77923828 30.39445312 33.77923828 30.796875 34.57421875 C31.76936395 36.730434 32.53235569 38.67893969 33 41 C31.5625 44 31.5625 44 29 46 C25.875 46.5 25.875 46.5 23 46 C22.34 45.01 21.68 44.02 21 43 C20.19949219 43.00386719 19.39898437 43.00773437 18.57421875 43.01171875 C16 43 16 43 14.33203125 41.70703125 C13.83058594 41.08183594 13.32914063 40.45664063 12.8125 39.8125 C12.22597656 39.08933594 11.63945313 38.36617187 11.03515625 37.62109375 C10.36355469 36.75613281 9.69195312 35.89117187 9 35 C8.145018 33.92799703 7.28951979 32.85640562 6.43359375 31.78515625 C5.53752033 30.64965279 4.64298546 29.5129335 3.75 28.375 C3.32565674 27.83721924 2.90131348 27.29943848 2.46411133 26.74536133 C-1.5619447 21.5171635 -4.59394671 16.89202321 -4.37109375 10.1015625 C-3.71202471 6.36915044 -1.92316005 3.22816152 0 0 Z " fill="#FDFCFC" transform="translate(67,169)"/>
<path d="M0 0 C1.15680267 0.00424484 1.15680267 0.00424484 2.3369751 0.00857544 C4.79251832 0.01974237 7.2476926 0.04484021 9.703125 0.0703125 C11.37108847 0.08034682 13.03905768 0.08947189 14.70703125 0.09765625 C18.78920397 0.11967025 22.871102 0.15417583 26.953125 0.1953125 C26.4744397 1.11340698 26.4744397 1.11340698 25.98608398 2.05004883 C24.55232092 5.02770802 24.1594284 8.02976515 23.61328125 11.26953125 C23.28650391 12.22279297 23.28650391 12.22279297 22.953125 13.1953125 C21.963125 13.5253125 20.973125 13.8553125 19.953125 14.1953125 C20.448125 16.1753125 20.448125 16.1753125 20.953125 18.1953125 C20.355 17.5353125 19.756875 16.8753125 19.140625 16.1953125 C17.07810666 13.8579279 17.07810666 13.8579279 13.953125 14.1953125 C13.85 15.1440625 13.746875 16.0928125 13.640625 17.0703125 C12.953125 20.1953125 12.953125 20.1953125 9.953125 22.1953125 C3.88605707 22.73701499 3.88605707 22.73701499 1.015625 21.0703125 C-0.49172363 18.4102855 -0.24673753 16.19325045 -0.046875 13.1953125 C-2.356875 14.8453125 -4.666875 16.4953125 -7.046875 18.1953125 C-7.706875 17.8653125 -8.366875 17.5353125 -9.046875 17.1953125 C-9.046875 16.5353125 -9.046875 15.8753125 -9.046875 15.1953125 C-11.02008553 13.8226443 -13.02230652 12.49103633 -15.046875 11.1953125 C-15.706875 10.5353125 -16.366875 9.8753125 -17.046875 9.1953125 C-17.706875 8.8653125 -18.366875 8.5353125 -19.046875 8.1953125 C-17.96818107 7.23176006 -16.88368757 6.27469833 -15.796875 5.3203125 C-14.89195313 4.51980469 -14.89195313 4.51980469 -13.96875 3.703125 C-9.44352195 0.15284445 -5.64884553 -0.07827588 0 0 Z " fill="#E3A587" transform="translate(73.046875,79.8046875)"/>
<path d="M0 0 C0.99 0.495 0.99 0.495 2 1 C4.3882241 1.01397385 6.74776492 0.97005317 9.1328125 0.88671875 C10.59371645 0.85455762 12.05465667 0.82401164 13.515625 0.79492188 C15.8138203 0.74577961 18.11008702 0.68805676 20.40722656 0.60229492 C35.80086948 0.0510946 35.80086948 0.0510946 41.64794922 5.40551758 C43 7 43 7 45 10 C41.1273638 12.46440486 37.23039958 14.25807076 33 16 C33.495 16.99 33.495 16.99 34 18 C33.401875 17.690625 32.80375 17.38125 32.1875 17.0625 C29.91043228 15.89790296 29.91043228 15.89790296 27 15 C26.896875 15.94875 26.79375 16.8975 26.6875 17.875 C26 21 26 21 23 23 C16.93293207 23.54170249 16.93293207 23.54170249 14.0625 21.875 C12.55515137 19.214973 12.80013747 16.99793795 13 14 C12.21625 14.474375 11.4325 14.94875 10.625 15.4375 C9.11051322 16.33898023 7.5764103 17.21179485 6 18 C5.72736328 16.75283203 5.72736328 16.75283203 5.44921875 15.48046875 C5.07216797 13.85044922 5.07216797 13.85044922 4.6875 12.1875 C4.32205078 10.56908203 4.32205078 10.56908203 3.94921875 8.91796875 C2.99004184 5.96938787 2.18917506 5.04200363 0 3 C0 2.01 0 1.02 0 0 Z " fill="#E6AC8E" transform="translate(117,79)"/>
<path d="M0 0 C0.14695312 0.54527344 0.29390625 1.09054688 0.4453125 1.65234375 C3.41575549 11.63917793 9.28743831 18.62970784 16.39257812 26.01489258 C20 29.79881867 20 29.79881867 20 32 C21.65 31.67 23.3 31.34 25 31 C25.66 32.32 26.32 33.64 27 35 C19.08 35 11.16 35 3 35 C3 33.68 3 32.36 3 31 C5.5 28.75 5.5 28.75 8 27 C4.37 27 0.74 27 -3 27 C-4.98718981 18.2350735 -6.50803456 10.05054166 -6 1 C-4 0 -4 0 0 0 Z " fill="#545454" transform="translate(63,180)"/>
<path d="M0 0 C1.98 0 3.96 0 6 0 C6.20753906 1.03253906 6.41507813 2.06507812 6.62890625 3.12890625 C9.30902938 16.00125708 13.02649962 28.47308777 17 41 C14.3359375 43.9765625 14.3359375 43.9765625 11.3125 44.1875 C10.1678125 44.0946875 10.1678125 44.0946875 9 44 C7.12504699 40.8081157 6.81216351 38.48532754 6.75 34.8125 C6.3997988 29.1955475 4.93959841 24.62867984 2.9375 19.4375 C0.38953609 12.80510409 -0.83732537 7.17928971 0 0 Z " fill="#ECBCA2" transform="translate(35,92)"/>
<path d="M0 0 C0 2.97 0 5.94 0 9 C-1.134375 9.350625 -2.26875 9.70125 -3.4375 10.0625 C-9.12397663 11.94586106 -14.62286468 14.26548648 -20.14624023 16.57446289 C-23.07871839 17.80006031 -25.98349842 18.99449947 -29 20 C-30.32 17.69 -31.64 15.38 -33 13 C-23.53705388 6.04616838 -12.02797227 0 0 0 Z " fill="#656565" transform="translate(55,182)"/>
<path d="M0 0 C2.49851426 1.3491977 4.9395943 2.75444141 7.34375 4.265625 C6.85796457 7.38853135 6.3451488 10.26142859 5.34375 13.265625 C6.00375 14.915625 6.66375 16.565625 7.34375 18.265625 C0.41375 18.265625 -6.51625 18.265625 -13.65625 18.265625 C-12.66625 16.285625 -11.67625 14.305625 -10.65625 12.265625 C-11.31625 11.275625 -11.97625 10.285625 -12.65625 9.265625 C-12.65625 7.945625 -12.65625 6.625625 -12.65625 5.265625 C-10.64453125 3.4921875 -10.64453125 3.4921875 -7.96875 1.890625 C-7.09863281 1.34664062 -6.22851562 0.80265625 -5.33203125 0.2421875 C-2.65625 -0.734375 -2.65625 -0.734375 0 0 Z " fill="#EC3C42" transform="translate(109.65625,196.734375)"/>
<path d="M0 0 C13.0686671 0.68782458 24.46257842 5.39815949 35 13 C33.02 15.97 33.02 15.97 31 19 C29.54166667 18.41666667 28.08333333 17.83333333 26.625 17.25 C25.70847656 16.88519531 24.79195312 16.52039063 23.84765625 16.14453125 C22.05863437 15.42548679 20.27399829 14.69532845 18.49609375 13.94921875 C12.44582884 11.43394008 6.35312593 9.59432058 0 8 C0 5.36 0 2.72 0 0 Z " fill="#646464" transform="translate(161,182)"/>
<path d="M0 0 C1.65 0 3.3 0 5 0 C5.97894669 8.23040368 3.97345999 14.6677998 1.21337891 22.27905273 C-0.7393445 27.79896049 -1.69743428 32.82298107 -1.796875 38.71484375 C-2 41 -2 41 -4 44 C-7.96 43.505 -7.96 43.505 -12 43 C-11.47731534 40.23723823 -10.89130413 37.6739124 -10 35 C-9.01 35.33 -8.02 35.66 -7 36 C-7 35.34 -7 34.68 -7 34 C-7.66 33.67 -8.32 33.34 -9 33 C-8.54363464 31.603522 -8.08480512 30.2078492 -7.625 28.8125 C-7.36976563 28.03519531 -7.11453125 27.25789063 -6.8515625 26.45703125 C-6 24 -6 24 -5.03125 21.8125 C-3.52303373 17.6991829 -2.73842672 13.4758527 -1.875 9.1875 C-1.69324219 8.30384766 -1.51148438 7.42019531 -1.32421875 6.50976562 C-0.87867164 4.34065469 -0.43740023 2.17076577 0 0 Z " fill="#E0A88C" transform="translate(176,92)"/>
<path d="M0 0 C0 0.66 0 1.32 0 2 C-1.98 2.33 -3.96 2.66 -6 3 C-5.80083984 4.43279297 -5.80083984 4.43279297 -5.59765625 5.89453125 C-4.54656551 13.58974299 -3.63643883 21.25666084 -3 29 C0.96 28.67 4.92 28.34 9 28 C7.7934375 29.11375 7.7934375 29.11375 6.5625 30.25 C4.23011409 32.75304829 3.36465606 33.7180955 3 37 C1.68 36.34 0.36 35.68 -1 35 C-1 34.34 -1 33.68 -1 33 C-0.34 32.67 0.32 32.34 1 32 C-0.98 31.34 -2.96 30.68 -5 30 C-7.13031092 21.39602581 -7.58440013 12.8150919 -8 4 C-19.30936683 6.46986172 -28.84783356 10.50368913 -39 16 C-39.20952909 19.14259619 -39.20952909 19.14259619 -37.5 22.25 C-35.84514252 25.89379416 -35.75468764 28.99323148 -36 33 C-38.19681012 29.70478482 -39.09956003 26.71995598 -40.21875 22.9609375 C-40.82326856 20.81111965 -40.82326856 20.81111965 -43 20 C-46.43960782 25.53231419 -49.62324575 30.92607248 -52 37 C-52.66 36.67 -53.32 36.34 -54 36 C-52.41794533 31.96071149 -50.74826714 27.97022678 -49 24 C-48.66226563 23.23042969 -48.32453125 22.46085937 -47.9765625 21.66796875 C-42.19837494 10.65465638 -27.17900227 6.58475605 -16 3 C-10.60380689 1.41917691 -5.64051846 0 0 0 Z " fill="#403F3F" transform="translate(63,178)"/>
<path d="M0 0 C13.06156343 2.28059044 26.24045784 5.76877249 38 12 C38.78761719 12.3815625 39.57523438 12.763125 40.38671875 13.15625 C49.3896994 18.1697944 54.10293298 28.44986954 57 38 C56.01 38 55.02 38 54 38 C53.68546875 37.19175781 53.3709375 36.38351563 53.046875 35.55078125 C52.61890625 34.48214844 52.1909375 33.41351563 51.75 32.3125 C51.33234375 31.25675781 50.9146875 30.20101562 50.484375 29.11328125 C48.9908349 25.98077741 47.26776415 23.61180529 45 21 C42.03947516 24.36423277 41.07710178 27.69159287 40 32 C39.67 32 39.34 32 39 32 C38.50059192 25.88225104 39.75099398 22.97504047 43 18 C32.69297099 10.9427166 21.18453769 7.35140201 9 5 C8.95101562 6.11117187 8.90203125 7.22234375 8.8515625 8.3671875 C8.46083081 16.39568598 7.98094455 24.17238416 6 32 C3.69 32 1.38 32 -1 32 C-0.01 32.66 0.98 33.32 2 34 C1.67 35.32 1.34 36.64 1 38 C0.34 38 -0.32 38 -1 38 C-1.04125 37.443125 -1.0825 36.88625 -1.125 36.3125 C-2.46930374 32.75969726 -5.00974189 31.29041047 -8 29 C-5.18515955 27.59257978 -3.43063887 28.33347836 -0.375 28.9375 C1.12933594 29.22947266 1.12933594 29.22947266 2.6640625 29.52734375 C3.43492187 29.68332031 4.20578125 29.83929688 5 30 C4.979375 28.948125 4.95875 27.89625 4.9375 26.8125 C5 23 5 23 5.46875 20.75 C6.14583834 17.24507212 6.35490426 13.74385325 6.5625 10.1875 C6.60568359 9.49462891 6.64886719 8.80175781 6.69335938 8.08789062 C6.79861453 6.39211314 6.89972863 4.69607948 7 3 C4.69 2.67 2.38 2.34 0 2 C0 1.34 0 0.68 0 0 Z " fill="#3D3D3C" transform="translate(152,177)"/>
<path d="M0 0 C0.99906372 0.24447876 0.99906372 0.24447876 2.01831055 0.49389648 C5.59898073 1.10166929 9.08872233 1.12448724 12.70703125 1.09765625 C13.43242599 1.0962413 14.15782074 1.09482635 14.90519714 1.09336853 C17.2076745 1.08779931 19.51005235 1.07525261 21.8125 1.0625 C23.37955588 1.05748102 24.9466133 1.05291881 26.51367188 1.04882812 C30.34248589 1.03783998 34.17122611 1.02059673 38 1 C35.9086545 3.27246338 33.97741243 4.69102273 31.20703125 6.04296875 C30.49482422 6.39423828 29.78261719 6.74550781 29.04882812 7.10742188 C28.31083984 7.46384766 27.57285156 7.82027344 26.8125 8.1875 C25.68811523 8.73954102 25.68811523 8.73954102 24.54101562 9.30273438 C22.69667788 10.20728218 20.84868755 11.10437576 19 12 C18.67 11.34 18.34 10.68 18 10 C16.18496192 9.30701453 16.18496192 9.30701453 14 8.75 C8.71455263 7.10413035 4.33565909 4.42342822 0 1 C0 0.67 0 0.34 0 0 Z " fill="#F0C2A9" transform="translate(88,185)"/>
<path d="M0 0 C0.33 0 0.66 0 1 0 C1.01458252 0.58491211 1.02916504 1.16982422 1.04418945 1.77246094 C1.1188357 4.43229397 1.21543899 7.09089448 1.3125 9.75 C1.33505859 10.67039062 1.35761719 11.59078125 1.38085938 12.5390625 C1.41630859 13.42851563 1.45175781 14.31796875 1.48828125 15.234375 C1.51446533 16.05131836 1.54064941 16.86826172 1.56762695 17.70996094 C2.08684058 20.45994617 3.19083451 21.90229473 5 24 C7.97065509 23.65772428 7.97065509 23.65772428 11 23 C12.4783226 20.04335481 12.06032783 17.25770263 12 14 C17.75 15.75 17.75 15.75 20 18 C19.625 20.625 19.625 20.625 19 23 C18.67 22.34 18.34 21.68 18 21 C16.68 21 15.36 21 14 21 C14 21.66 14 22.32 14 23 C14.66 23.33 15.32 23.66 16 24 C8.40614334 28.86006826 8.40614334 28.86006826 3 28 C1.375 26.5 1.375 26.5 0 25 C-1.32 25 -2.64 25 -4 25 C-4.99 24.34 -5.98 23.68 -7 23 C-7.4375 20.5625 -7.4375 20.5625 -7 18 C-6.36707031 17.61070313 -5.73414062 17.22140625 -5.08203125 16.8203125 C-2.06562494 14.18307922 -1.85048431 11.09555115 -1.25 7.3125 C-1.12496094 6.61060547 -0.99992187 5.90871094 -0.87109375 5.18554688 C-0.56582445 3.45960119 -0.28089846 1.73007916 0 0 Z " fill="#E2A284" transform="translate(101,107)"/>
<path d="M0 0 C1.15680267 0.00424484 1.15680267 0.00424484 2.3369751 0.00857544 C4.79251832 0.01974237 7.2476926 0.04484021 9.703125 0.0703125 C11.37108847 0.08034682 13.03905768 0.08947189 14.70703125 0.09765625 C18.78920397 0.11967025 22.871102 0.15417583 26.953125 0.1953125 C25.87329102 2.67358398 25.87329102 2.67358398 23.953125 5.1953125 C20.92553711 5.69946289 20.92553711 5.69946289 17.23046875 5.54296875 C16.24029503 5.5181266 16.24029503 5.5181266 15.2301178 5.49278259 C13.11539665 5.43835132 11.00394413 5.35156106 8.890625 5.2578125 C-3.51256995 4.66468958 -3.51256995 4.66468958 -15.22436523 8.41577148 C-15.82579346 8.67302002 -16.42722168 8.93026855 -17.046875 9.1953125 C-17.706875 8.8653125 -18.366875 8.5353125 -19.046875 8.1953125 C-17.96818107 7.23176006 -16.88368757 6.27469833 -15.796875 5.3203125 C-14.89195313 4.51980469 -14.89195313 4.51980469 -13.96875 3.703125 C-9.44352195 0.15284445 -5.64884553 -0.07827588 0 0 Z " fill="#C96A41" transform="translate(73.046875,79.8046875)"/>
<path d="M0 0 C0.99 0.495 0.99 0.495 2 1 C4.3882241 1.01397385 6.74776492 0.97005317 9.1328125 0.88671875 C10.59371645 0.85455762 12.05465667 0.82401164 13.515625 0.79492188 C15.8138203 0.74577961 18.11008702 0.68805676 20.40722656 0.60229492 C35.80277308 0.05102643 35.80277308 0.05102643 41.74560547 5.50317383 C43 7 43 7 44 9 C43.38576172 8.7834375 42.77152344 8.566875 42.13867188 8.34375 C33.86332803 5.72857184 26.10283619 5.73766763 17.5 6 C14.82253132 6.07994338 12.14726738 6.13947877 9.46875 6.1875 C7.71208008 6.23970703 7.71208008 6.23970703 5.91992188 6.29296875 C3 6 3 6 1.09570312 4.67578125 C0 3 0 3 0 0 Z " fill="#C86941" transform="translate(117,79)"/>
<path d="M0 0 C0.68126953 -0.01224609 1.36253906 -0.02449219 2.06445312 -0.03710938 C5.79079809 -0.04805848 7.38241571 0.06744381 10.5625 2.1875 C8.9375 8.9375 8.9375 8.9375 5.5625 11.1875 C-0.50456793 11.72920249 -0.50456793 11.72920249 -3.375 10.0625 C-4.88234863 7.402473 -4.63736253 5.18543795 -4.4375 2.1875 C-5.22125 2.661875 -6.005 3.13625 -6.8125 3.625 C-8.32698678 4.52648023 -9.8610897 5.39929485 -11.4375 6.1875 C-9.08871585 -0.35554155 -6.50909858 0.00612333 0 0 Z " fill="#8F795E" transform="translate(134.4375,90.8125)"/>
<path d="M0 0 C0.99 0 1.98 0 3 0 C3.309375 1.134375 3.61875 2.26875 3.9375 3.4375 C4.62924531 6.78775099 4.62924531 6.78775099 6 8 C10.68122386 8.4384576 10.68122386 8.4384576 14.9375 6.8125 C16.32851983 4.43958382 16.21917317 2.70313576 16 0 C20.43458973 1.3937282 22.87378374 3.60582235 26 7 C19.60212192 9.1810948 14.33930967 10.1817128 7.5625 10.1875 C6.81162109 10.19974609 6.06074219 10.21199219 5.28710938 10.22460938 C1.06352352 10.2357534 -2.14303716 9.9399833 -6 8 C-6 6 -6 6 -3.5625 3.4375 C-2.716875 2.633125 -1.87125 1.82875 -1 1 C-0.67 0.67 -0.34 0.34 0 0 Z " fill="#FBF9F7" transform="translate(127,93)"/>
<path d="M0 0 C0.66 0 1.32 0 2 0 C2.309375 1.134375 2.61875 2.26875 2.9375 3.4375 C3.62924531 6.78775099 3.62924531 6.78775099 5 8 C9.68122386 8.4384576 9.68122386 8.4384576 13.9375 6.8125 C15.32851983 4.43958382 15.21917317 2.70313576 15 0 C18.58790575 0.29899215 19.78166776 0.76986601 22.3125 3.4375 C24 6 24 6 24 8 C19.56418525 10.51092105 15.74052181 10.33172389 10.75 10.3125 C9.92886719 10.32861328 9.10773438 10.34472656 8.26171875 10.36132812 C2.51124848 10.36588476 -1.72925793 9.30139544 -7 7 C-4.66666667 4.66666667 -2.33333333 2.33333333 0 0 Z " fill="#FBF8F7" transform="translate(71,93)"/>
<path d="M0 0 C0.25523438 1.28970703 0.25523438 1.28970703 0.515625 2.60546875 C2.03189768 10.00133073 3.84341023 17.02110257 6.328125 24.16015625 C7.06106223 27.25809442 7.05782859 29.00800442 6 32 C5.01 32.66 4.02 33.32 3 34 C3.04125 33.236875 3.0825 32.47375 3.125 31.6875 C3.22080824 28.77281584 3.22080824 28.77281584 1 26 C0.63661151 23.68339835 0.49737882 21.39759253 0.34375 19.05859375 C0.1683252 16.78100001 0.1683252 16.78100001 -2 15 C-2.4140625 12.6171875 -2.4140625 12.6171875 -2.625 9.875 C-2.73714844 8.50988281 -2.73714844 8.50988281 -2.8515625 7.1171875 C-2.92503906 6.06917969 -2.92503906 6.06917969 -3 5 C-3.66 5 -4.32 5 -5 5 C-4.6875 3.0625 -4.6875 3.0625 -4 1 C-1 0 -1 0 0 0 Z " fill="#DDA286" transform="translate(42,96)"/>
<path d="M0 0 C0.66 2.97 1.32 5.94 2 9 C1.34 9 0.68 9 0 9 C-0.66 14.61 -1.32 20.22 -2 26 C-1.01 26.33 -0.02 26.66 1 27 C-0.32 27 -1.64 27 -3 27 C-4.98718981 18.2350735 -6.50803456 10.05054166 -6 1 C-4 0 -4 0 0 0 Z " fill="#666666" transform="translate(63,180)"/>
<path d="M0 0 C3.86606247 3.22171872 5.03577168 6.09120127 6 11 C5.625 13.4375 5.625 13.4375 5 15 C4.34 13.35 3.68 11.7 3 10 C2.34 10 1.68 10 1 10 C-0.17877654 11.80347857 -0.17877654 11.80347857 -1.3125 14 C-2.625 16.21875 -2.625 16.21875 -4 18 C-6.8125 18.5 -6.8125 18.5 -9 18 C-7.14086809 11.10164214 -4.20484217 5.75614317 0 0 Z " fill="#646464" transform="translate(20,197)"/>
<path d="M0 0 C0 0.66 0 1.32 0 2 C-1.98 2.33 -3.96 2.66 -6 3 C-5.86722656 3.95519531 -5.73445313 4.91039062 -5.59765625 5.89453125 C-4.54656551 13.58974299 -3.63643883 21.25666084 -3 29 C0.96 28.67 4.92 28.34 9 28 C7.7934375 29.11375 7.7934375 29.11375 6.5625 30.25 C4.23011409 32.75304829 3.36465606 33.7180955 3 37 C1.68 36.34 0.36 35.68 -1 35 C-1 34.34 -1 33.68 -1 33 C-0.01 32.505 -0.01 32.505 1 32 C-0.98 31.34 -2.96 30.68 -5 30 C-7.09008726 20.74389928 -8.03487095 11.42540928 -9 2 C-5.62902617 0.50178941 -3.79557881 0 0 0 Z " fill="#3A3939" transform="translate(63,178)"/>
<path d="M0 0 C1.65322266 0.01740234 1.65322266 0.01740234 3.33984375 0.03515625 C4.99693359 0.04869141 4.99693359 0.04869141 6.6875 0.0625 C7.54214844 0.07410156 8.39679688 0.08570312 9.27734375 0.09765625 C9.87109375 2.453125 9.87109375 2.453125 10.27734375 5.09765625 C8.77734375 7.41015625 8.77734375 7.41015625 6.27734375 9.09765625 C2.76120033 9.52946334 0.41363593 9.79409339 -2.66015625 7.91015625 C-4.06708993 5.51009291 -4.01058384 3.83296834 -3.72265625 1.09765625 C-2.72265625 0.09765625 -2.72265625 0.09765625 0 0 Z " fill="#4C3424" transform="translate(76.72265625,92.90234375)"/>
<path d="M0 0 C1.6266848 0.28211877 3.25132896 0.57602375 4.875 0.875 C5.77992188 1.03742188 6.68484375 1.19984375 7.6171875 1.3671875 C10 2 10 2 12 4 C11.01 4 10.02 4 9 4 C9.04125 5.155 9.0825 6.31 9.125 7.5 C9.13247414 12.17881267 8.64238535 16.74009655 8.0625 21.375 C7.97564941 22.07689453 7.88879883 22.77878906 7.79931641 23.50195312 C7.4118178 26.4672844 6.94831014 29.15506958 6 32 C3.69 32 1.38 32 -1 32 C-0.01 32.66 0.98 33.32 2 34 C1.67 35.32 1.34 36.64 1 38 C0.34 38 -0.32 38 -1 38 C-1.04125 37.443125 -1.0825 36.88625 -1.125 36.3125 C-2.46930374 32.75969726 -5.00974189 31.29041047 -8 29 C-5.18515955 27.59257978 -3.43063887 28.33347836 -0.375 28.9375 C1.12933594 29.22947266 1.12933594 29.22947266 2.6640625 29.52734375 C3.43492187 29.68332031 4.20578125 29.83929688 5 30 C4.979375 28.948125 4.95875 27.89625 4.9375 26.8125 C5 23 5 23 5.46875 20.75 C6.14583834 17.24507212 6.35490426 13.74385325 6.5625 10.1875 C6.60568359 9.49462891 6.64886719 8.80175781 6.69335938 8.08789062 C6.79861453 6.39211314 6.89972863 4.69607948 7 3 C4.69 2.67 2.38 2.34 0 2 C0 1.34 0 0.68 0 0 Z " fill="#353535" transform="translate(152,177)"/>
<path d="M0 0 C4.6543182 5.48544645 8.28400548 10.66105616 9 18 C7.68 18 6.36 18 5 18 C3.515625 16.3203125 3.515625 16.3203125 2.25 14.125 C1.82203125 13.40570313 1.3940625 12.68640625 0.953125 11.9453125 C0 10 0 10 0 8 C-0.66 8 -1.32 8 -2 8 C-2.66 9.98 -3.32 11.96 -4 14 C-4.33 14 -4.66 14 -5 14 C-4.7444669 8.13551546 -4.34242429 4.34242429 0 0 Z " fill="#636363" transform="translate(197,197)"/>
<path d="M0 0 C0.99 0.33 1.98 0.66 3 1 C2.8453125 2.670625 2.8453125 2.670625 2.6875 4.375 C2.6875 9.97052825 4.9963402 14.37961621 8 19 C10.4158995 21.45198044 10.4158995 21.45198044 13 23 C13.763125 23.5775 14.52625 24.155 15.3125 24.75 C16.1478125 25.36875 16.1478125 25.36875 17 26 C13.05675627 25.52203106 10.35235162 24.09419281 6.98046875 22.0546875 C3.50542418 20.20407205 -0.23929717 19.12565255 -4 18 C-4.33 18.66 -4.66 19.32 -5 20 C-6.32 18.68 -7.64 17.36 -9 16 C-5.32589215 14.82428549 -1.83070817 14.92633254 2 15 C1.67 14.195625 1.34 13.39125 1 12.5625 C-0.20717135 8.26195205 -0.17721353 4.43033819 0 0 Z " fill="#302F2F" transform="translate(48,5)"/>
<path d="M0 0 C1.65 0 3.3 0 5 0 C6.15000531 10.0518983 2.82303108 17.93167925 -1 27 C-1.33 27 -1.66 27 -2 27 C-2 24.03 -2 21.06 -2 18 C-1.67 18 -1.34 18 -1 18 C-0.34 15.03 0.32 12.06 1 9 C1.66 9 2.32 9 3 9 C2.67 8.01 2.34 7.02 2 6 C1.34 5.67 0.68 5.34 0 5 C0 3.35 0 1.7 0 0 Z " fill="#EDBCA2" transform="translate(176,92)"/>
<path d="M0 0 C1.54571278 2.31856917 2.79618552 4.50638429 4 7 C2.375 9.5 2.375 9.5 0 12 C-3.0625 12.625 -3.0625 12.625 -6 12 C-7.875 9.5 -7.875 9.5 -9 7 C-6.03 4.69 -3.06 2.38 0 0 Z " fill="#F5F2F2" transform="translate(96,203)"/>
<path d="M0 0 C2.95406919 0.59566794 2.95406919 0.59566794 5.6875 -0.0625 C9.76418015 -0.67784795 13.43006838 -0.26239571 17.51171875 0.18359375 C20.08055005 0.48825684 20.08055005 0.48825684 23 0.4375 C22.67 1.0975 22.34 1.7575 22 2.4375 C20.13794922 2.42009766 20.13794922 2.42009766 18.23828125 2.40234375 C16.59635568 2.39296132 14.95442847 2.3838616 13.3125 2.375 C12.49587891 2.36662109 11.67925781 2.35824219 10.83789062 2.34960938 C6.1526968 2.31556647 6.1526968 2.31556647 1.53125 2.96875 C-2.58134069 3.73034087 -6.65642644 3.26963341 -10.8125 3 C-12.13797852 2.92168945 -12.13797852 2.92168945 -13.49023438 2.84179688 C-15.66050408 2.71275381 -17.83030693 2.57590044 -20 2.4375 C-20.33 1.7775 -20.66 1.1175 -21 0.4375 C-19.12528812 0.26762319 -17.25021305 0.10175224 -15.375 -0.0625 C-14.33085938 -0.1553125 -13.28671875 -0.248125 -12.2109375 -0.34375 C-8.03119391 -0.62850139 -4.12597238 -0.77361982 0 0 Z " fill="#D17C57" transform="translate(108,145.5625)"/>
<path d="M0 0 C0.33 0 0.66 0 1 0 C1.05402274 2.10388569 1.09280256 4.20816714 1.125 6.3125 C1.14820313 7.48425781 1.17140625 8.65601563 1.1953125 9.86328125 C1 13 1 13 -1 16 C-3.64 15.67 -6.28 15.34 -9 15 C-8.47731534 12.23723823 -7.89130413 9.6739124 -7 7 C-4 8 -4 8 -3 10 C-2.01 6.7 -1.02 3.4 0 0 Z " fill="#EDBBA1" transform="translate(173,120)"/>
<path d="M0 0 C2.97 0.495 2.97 0.495 6 1 C6.19676277 9.29683005 6.25943749 16.95075394 4 25 C3.67 25 3.34 25 3 25 C2.67 18.07 2.34 11.14 2 4 C1.34 4 0.68 4 0 4 C0 2.68 0 1.36 0 0 Z " fill="#626262" transform="translate(153,179)"/>
<path d="M0 0 C5.75 1.75 5.75 1.75 8 4 C7.625 6.625 7.625 6.625 7 9 C6.67 8.34 6.34 7.68 6 7 C4.68 7 3.36 7 2 7 C2 7.66 2 8.32 2 9 C2.66 9.33 3.32 9.66 4 10 C-3.83038502 15.01144641 -3.83038502 15.01144641 -9 14 C-11.875 11.5 -11.875 11.5 -14 9 C-11.13275314 9.57344937 -10.1385485 9.8614515 -8 12 C-3.98272295 12.45048309 -3.98272295 12.45048309 -1.75 9.9375 C0.37388366 6.37240957 0.3200954 4.08121639 0 0 Z " fill="#E09D7E" transform="translate(113,121)"/>
<path d="M0 0 C0.99 0 1.98 0 3 0 C2.6875 2.875 2.6875 2.875 2 6 C-1.70415293 8.46943529 -3.62144505 8.46913089 -8 8 C-9.9375 6 -9.9375 6 -11 4 C-10.34 3.34 -9.68 2.68 -9 2 C-8.01 2 -7.02 2 -6 2 C-6 2.66 -6 3.32 -6 4 C-4.35 4 -2.7 4 -1 4 C-0.67 2.68 -0.34 1.36 0 0 Z " fill="#938069" transform="translate(84,94)"/>
<path d="M0 0 C2.97 0 5.94 0 9 0 C10 4 10 4 9 6 C7.02 6 5.04 6 3 6 C3 5.01 3 4.02 3 3 C2.01 3 1.02 3 0 3 C-0.33 3.66 -0.66 4.32 -1 5 C-0.67 3.35 -0.34 1.7 0 0 Z " fill="#483222" transform="translate(131,93)"/>
<path d="M0 0 C-5.73115109 3.59523599 -10.21017493 5.62964591 -17 6 C-16.34 5.01 -15.68 4.02 -15 3 C-16.32 2.34 -17.64 1.68 -19 1 C-16.20910735 0.63843896 -13.41759278 0.28545167 -10.625 -0.0625 C-9.43390625 -0.2181543 -9.43390625 -0.2181543 -8.21875 -0.37695312 C-2.2265625 -1.11328125 -2.2265625 -1.11328125 0 0 Z " fill="#302F2E" transform="translate(149,39)"/>
<path d="M0 0 C1.75098126 2.62647188 3.38731308 5.28775382 5 8 C3.54096742 7.69078116 2.08279278 7.37751201 0.625 7.0625 C-0.18710937 6.88847656 -0.99921875 6.71445312 -1.8359375 6.53515625 C-4 6 -4 6 -6 5 C-6.33 5.66 -6.66 6.32 -7 7 C-8.32 5.68 -9.64 4.36 -11 3 C-7.32589215 1.82428549 -3.83070817 1.92633254 0 2 C0 1.34 0 0.68 0 0 Z " fill="#363635" transform="translate(50,18)"/>
<path d="M0 0 C0.68126953 -0.01224609 1.36253906 -0.02449219 2.06445312 -0.03710938 C5.79079809 -0.04805848 7.38241571 0.06744381 10.5625 2.1875 C9.30953125 2.22488281 8.0565625 2.26226562 6.765625 2.30078125 C5.11455379 2.36644885 3.46351345 2.43289593 1.8125 2.5 C0.575 2.53383789 0.575 2.53383789 -0.6875 2.56835938 C-6.64435857 2.80298917 -6.64435857 2.80298917 -11.4375 6.1875 C-9.08871585 -0.35554155 -6.50909858 0.00612333 0 0 Z " fill="#CC754F" transform="translate(134.4375,90.8125)"/>
<path d="M0 0 C4.62 0.99 9.24 1.98 14 3 C14 3.33 14 3.66 14 4 C11.41638482 4.05407567 8.83390745 4.093707 6.25 4.125 C5.52039063 4.14175781 4.79078125 4.15851562 4.0390625 4.17578125 C0.1955376 4.21072239 -2.74606772 4.17499684 -6 2 C-4.02 1.67 -2.04 1.34 0 1 C0 0.67 0 0.34 0 0 Z " fill="#282828" transform="translate(104,41)"/>
<path d="M0 0 C0.66 0 1.32 0 2 0 C2 0.66 2 1.32 2 2 C2.66 2.33 3.32 2.66 4 3 C-3.83038502 8.01144641 -3.83038502 8.01144641 -9 7 C-11.875 4.5 -11.875 4.5 -14 2 C-11.13275314 2.57344937 -10.1385485 2.8614515 -8 5 C-6.68 5 -5.36 5 -4 5 C-2.61767557 3.37373596 -1.28062485 1.7074998 0 0 Z " fill="#DC9473" transform="translate(113,128)"/>
<path d="M0 0 C-0.33 5.28 -0.66 10.56 -1 16 C-1.33 16 -1.66 16 -2 16 C-2.33 14.35 -2.66 12.7 -3 11 C-3.33 11 -3.66 11 -4 11 C-3.8864371 9.35333797 -3.75882619 7.70763918 -3.625 6.0625 C-3.55539063 5.14597656 -3.48578125 4.22945313 -3.4140625 3.28515625 C-3.27742187 2.53105469 -3.14078125 1.77695313 -3 1 C-1 0 -1 0 0 0 Z " fill="#C67552" transform="translate(178,116)"/>
<path d="M0 0 C1.5625 1.0625 1.5625 1.0625 3 3 C2.69805665 8.13303703 1.30471106 13.04209797 0 18 C-0.33 18 -0.66 18 -1 18 C-1.11269443 11.8894576 -0.89604368 6.04829486 0 0 Z " fill="#2F2C2A" transform="translate(169,106)"/>
<path d="M0 0 C-2.29767085 2.82790258 -3.38948075 3.91278296 -7.0625 4.4375 C-10.2104846 3.96865123 -11.12785559 3.49619254 -13 1 C-8.62426048 0.40667939 -4.42471556 -0.13827236 0 0 Z " fill="#DF9C7D" transform="translate(116,154)"/>
<path d="M0 0 C0.33 0.66 0.66 1.32 1 2 C1.99 2.33 2.98 2.66 4 3 C4 3.99 4 4.98 4 6 C3.34 6 2.68 6 2 6 C1.67 7.98 1.34 9.96 1 12 C0.01 12 -0.98 12 -2 12 C-1.34 8.04 -0.68 4.08 0 0 Z " fill="#BE714F" transform="translate(175,95)"/>
<path d="M0 0 C2.3125 -0.25 2.3125 -0.25 5 0 C6.875 1.75 6.875 1.75 8 4 C7.72117131 7.06711564 6.75752863 8.36370706 5 11 C5 8.36 5 5.72 5 3 C3.35 3 1.7 3 0 3 C0 2.01 0 1.02 0 0 Z " fill="#C8734E" transform="translate(176,89)"/>
<path d="M0 0 C0.66 0 1.32 0 2 0 C3.98 4.29 5.96 8.58 8 13 C7.01 13.33 6.02 13.66 5 14 C4.16235732 12.04350603 3.33000941 10.08474444 2.5 8.125 C2.0359375 7.03445312 1.571875 5.94390625 1.09375 4.8203125 C0 2 0 2 0 0 Z " fill="#424140" transform="translate(201,201)"/>
<path d="M0 0 C-4.9748792 3.31658613 -11.03568353 4.38479461 -17 4 C-14.05276949 2.03517966 -11.88022174 1.2438783 -8.5 0.3125 C-7.5409375 0.04050781 -6.581875 -0.23148438 -5.59375 -0.51171875 C-3 -1 -3 -1 0 0 Z " fill="#464544" transform="translate(55,181)"/>
<path d="M0 0 C0.33 0 0.66 0 1 0 C1.33820166 1.5823006 1.67035939 3.16589375 2 4.75 C2.185625 5.63171875 2.37125 6.5134375 2.5625 7.421875 C3 10 3 10 3 14 C1.35 14 -0.3 14 -2 14 C-1.34 9.38 -0.68 4.76 0 0 Z " fill="#BD6E4B" transform="translate(52,124)"/>
<path d="M0 0 C1.8125 0.0625 1.8125 0.0625 4 1 C6.7166373 5.85113803 7.34469404 9.36999727 7 15 C4.83881098 11.75821647 3.91216266 8.84400869 2.78125 5.15625 C2.00732212 2.75305559 2.00732212 2.75305559 0 0 Z " fill="#3B3B3B" transform="translate(20,196)"/>
<path d="M0 0 C1.53166168 4.08443115 0.63081652 7.79455657 0 12 C-0.33 12 -0.66 12 -1 12 C-1.33 9.69 -1.66 7.38 -2 5 C-2.66 5 -3.32 5 -4 5 C-3.6875 3.0625 -3.6875 3.0625 -3 1 C-2.01 0.67 -1.02 0.34 0 0 Z " fill="#C76E48" transform="translate(41,96)"/>
<path d="M0 0 C0.99 0.33 1.98 0.66 3 1 C2.50628906 1.32613281 2.01257813 1.65226563 1.50390625 1.98828125 C0.86324219 2.42527344 0.22257812 2.86226562 -0.4375 3.3125 C-1.07558594 3.74175781 -1.71367188 4.17101562 -2.37109375 4.61328125 C-4.2885684 6.0034052 -4.2885684 6.0034052 -5 9 C-5.99 8.67 -6.98 8.34 -8 8 C-6.49860488 3.79609368 -3.82724957 2.10889262 0 0 Z " fill="#626262" transform="translate(73,206)"/>
<path d="M0 0 C0.99 0 1.98 0 3 0 C2.67 1.98 2.34 3.96 2 6 C-0.60582371 6.93065133 -1.64198224 7.14917407 -4.25 6.0625 C-4.8275 5.711875 -5.405 5.36125 -6 5 C-4.35 4.67 -2.7 4.34 -1 4 C-0.67 2.68 -0.34 1.36 0 0 Z " fill="#796249" transform="translate(84,94)"/>
<path d="M0 0 C1.20076172 0.31324219 1.20076172 0.31324219 2.42578125 0.6328125 C3.23402344 0.83648437 4.04226562 1.04015625 4.875 1.25 C5.48988281 1.41757813 6.10476562 1.58515625 6.73828125 1.7578125 C6.73828125 2.4178125 6.73828125 3.0778125 6.73828125 3.7578125 C0.79828125 2.7678125 0.79828125 2.7678125 -5.26171875 1.7578125 C-2.26171875 -0.2421875 -2.26171875 -0.2421875 0 0 Z " fill="#444443" transform="translate(166.26171875,180.2421875)"/>
<path d="M0 0 C4.95 0.99 4.95 0.99 10 2 C9.01 2.495 9.01 2.495 8 3 C8 4.98 8 6.96 8 9 C7.67 9 7.34 9 7 9 C7 7.02 7 5.04 7 3 C4.69 2.67 2.38 2.34 0 2 C0 1.34 0 0.68 0 0 Z " fill="#484747" transform="translate(152,177)"/>
<path d="M0 0 C0.66 0.66 1.32 1.32 2 2 C1 3 1 3 -2.16015625 3.09765625 C-4.09181641 3.08025391 -4.09181641 3.08025391 -6.0625 3.0625 C-7.35285156 3.05347656 -8.64320312 3.04445312 -9.97265625 3.03515625 C-10.97167969 3.02355469 -11.97070312 3.01195312 -13 3 C-10.10355557 1.34023971 -8.14035047 0.78140945 -4.8125 0.9375 C-2.9253125 0.9684375 -2.9253125 0.9684375 -1 1 C-0.67 0.67 -0.34 0.34 0 0 Z " fill="#D98F6E" transform="translate(129,145)"/>
<path d="M0 0 C0.99 0 1.98 0 3 0 C3 0.99 3 1.98 3 3 C4.32 3.33 5.64 3.66 7 4 C5.02 4.33 3.04 4.66 1 5 C0.34 4.01 -0.32 3.02 -1 2 C-0.67 1.34 -0.34 0.68 0 0 Z " fill="#897660" transform="translate(131,96)"/>
<path d="M0 0 C0.33 0 0.66 0 1 0 C1 3.63 1 7.26 1 11 C-2 7 -2 7 -1.75 4.9375 C-1.5025 4.298125 -1.255 3.65875 -1 3 C-0.67 2.01 -0.34 1.02 0 0 Z " fill="#2F2B28" transform="translate(51,120)"/>
<path d="M0 0 C1.32 0.33 2.64 0.66 4 1 C3.67 2.65 3.34 4.3 3 6 C2.01 5.34 1.02 4.68 0 4 C0 2.68 0 1.36 0 0 Z " fill="#745B43" transform="translate(140,93)"/>
<path d="M0 0 C-4.30769231 3.07692308 -4.30769231 3.07692308 -7.8125 2.6875 C-8.534375 2.460625 -9.25625 2.23375 -10 2 C-6.70021068 -0.19985954 -3.76967739 -1.88483869 0 0 Z " fill="#2A2928" transform="translate(149,39)"/>
</svg>
